# xmcd
#
# Track frame offsets: 
#        150
#        20316
#        43359
#        58432
#        74028
#        95552
#        113224
#        130289
#        152313
#        166161
#        181361
#        199169
#        218252
#        228983
#        246277
#        265983
#
# Disc length: 3843 seconds
#
# Revision: 0
# Processed by: cddbd v1.5.2PL0 Copyright (c) Steve Scherf et al.
# Submitted via: ExactAudioCopyFreeDBPlugin 1.0
#
DISCID=e60f0110
DTITLE=Xavier Naidoo - Alles Kann Besser Werden
DYEAR=1900
DGENRE=Folk
TTITLE0=Alles Kann Besser Werden
TTITLE1=Mut Zur Veränderung
TTITLE2=Stern
TTITLE3=Alles Lebt
TTITLE4=Der Kreis
TTITLE5=Ich Brauche Dich
TTITLE6=Meine Muse
TTITLE7=Shine Like A Star
TTITLE8=Wild Vor Wut
TTITLE9=Königin
TTITLE10=Sie Kommt Zurück
TTITLE11=Bitte Hör Nicht Auf Zu Träumen
TTITLE12=Intro: Du Must Es Nicht Tun
TTITLE13=Das War Noch Nicht Alles
TTITLE14=Söldnerlied (Drogen Und Gold)
TTITLE15=Sie Verdienen Einen Besonderen Schutz
EXTD=
EXTT0=
EXTT1=
EXTT2=
EXTT3=
EXTT4=
EXTT5=
EXTT6=
EXTT7=
EXTT8=
EXTT9=
EXTT10=
EXTT11=
EXTT12=
EXTT13=
EXTT14=
EXTT15=
PLAYORDER=
